:SAMPLES-PER-SECOND 30
:FRAME-RANGE 1-2775
:FULLY-SPECIFIED
:DEGREES
1995
root  59.1969 38.4784 12.9699 152.588 -82.4885 -146.084
RightUpLeg  -21.3019 -2.87764 -7.98222
RightLeg  16.8611 -10.8806 -3.89832
RightFoot  -5.99811 -0.589763 11.7224
RightToes  1.218e-010 1.26228e-014 -6.01869e-014
Spine  -6.23526 -0.569742 -0.626327
Spine1  8.5022 -0.669508 0.222698
HEad  -2.04696 -1.47585 3.91481
LeftShoulder1  1.42879 -1.89626 -21.3444
LeftArm  -2.48183 7.08276 -50.3941
LeftForeArm  35.8967 2.65557 -12.6412
LeftHand  0.0251265 6.29417 6.19254
RightShoulder  1.27923 0.855172 24.5877
RightArm  -13.6606 -0.58735 50.9274
RightForeArm  78.1449 1.77235 9.5805
RightHand  0.341173 -8.75711 -12.6914
LeftUpLeg  3.51338 12.892 19.6655
LeftLeg  12.7647 5.80349 1.89141
LeftFoot  -11.4215 0.0518693 -22.6264
LeftToes  5.08156e-010 -6.90346e-011 -6.33378e-011
1996
root  58.4948 38.4404 11.8716 152.783 -80.3255 -146.765
RightUpLeg  -21.3567 -2.44213 -5.11819
RightLeg  19.0606 -8.30878 -3.38836
RightFoot  -4.36198 -0.673181 10.5222
RightToes  1.218e-010 1.26228e-014 -6.01869e-014
Spine  -6.32213 -0.223559 1.14166
Spine1  9.0622 -0.415352 0.512979
HEad  -2.07053 0.0675486 3.36922
LeftShoulder1  1.44119 -1.94981 -21.2978
LeftArm  -2.49553 6.96625 -50.0396
LeftForeArm  35.5802 2.28299 -12.6055
LeftHand  0.0237748 6.32755 6.26456
RightShoulder  1.36677 1.15484 24.4954
RightArm  -11.2038 1.05299 50.8982
RightForeArm  77.9311 3.14953 10.6316
RightHand  0.336935 -8.7978 -12.4167
LeftUpLeg  5.4046 13.149 23.0631
LeftLeg  13.9806 5.82329 2.19415
LeftFoot  -8.56114 0.729 -27.4581
LeftToes  5.08156e-010 -6.90346e-011 -6.33378e-011
1997
root  57.8257 38.3457 10.7627 153.265 -78.7347 -147.484
RightUpLeg  -21.4377 -3.15444 -2.64946
RightLeg  21.4856 -6.04805 -2.83236
RightFoot  -4.65135 -0.68467 11.1373
RightToes  1.218e-010 1.26228e-014 -6.01869e-014
Spine  -5.89406 -0.0728476 2.65025
Spine1  8.66213 -0.197108 0.460874
HEad  -1.75142 1.42796 2.90289
LeftShoulder1  1.39839 -1.77102 -21.4277
LeftArm  -2.59694 7.05343 -49.4967
LeftForeArm  34.9169 1.90125 -12.5339
LeftHand  0.0203324 6.22838 6.43889
RightShoulder  1.44254 1.44026 24.2491
RightArm  -8.35184 3.14921 51.1552
RightForeArm  77.7288 4.38989 11.2979
RightHand  0.289284 -8.62235 -11.4273
LeftUpLeg  4.36468 9.03082 24.7803
LeftLeg  19.389 10.0571 4.23326
LeftFoot  -4.6092 1.86643 -30.5828
LeftToes  5.08156e-010 -6.90346e-011 -6.33378e-011
1998
root  57.239 38.4176 9.78178 154.735 -78.1019 -149.052
RightUpLeg  -20.6441 -4.95959 -0.971698
RightLeg  22.2847 -3.74464 -1.90473
RightFoot  -6.31596 -0.499318 10.3692
RightToes  1.218e-010 1.26228e-014 -6.01869e-014
Spine  -4.92867 -0.0244552 3.62563
Spine1  7.81815 -0.0322694 0.412833
HEad  -1.60452 2.1482 2.37543
LeftShoulder1  1.37956 -1.72081 -21.3214
LeftArm  -2.80583 6.9642 -49.4746
LeftForeArm  33.8186 1.52016 -12.4485
LeftHand  0.00974333 6.02322 6.42227
RightShoulder  1.47329 1.64582 23.5792
RightArm  -3.55612 5.73208 51.4788
RightForeArm  75.6521 7.17127 11.5203
RightHand  0.162657 -7.92315 -8.8649
LeftUpLeg  0.133124 6.90001 24.6314
LeftLeg  28.6459 13.9081 8.42635
LeftFoot  0.759936 2.10749 -19.7558
LeftToes  5.08156e-010 -6.90346e-011 -6.33378e-011
1999
root  56.6586 38.5042 8.95425 156.459 -77.3448 -151.041
RightUpLeg  -19.4768 -4.13711 0.14495
RightLeg  22.7323 -3.80352 -1.97078
RightFoot  -7.61552 -0.362454 9.52644
RightToes  1.218e-010 1.26228e-014 -6.01869e-014
Spine  -4.26242 0.437119 5.19811
Spine1  7.7203 0.655882 -0.0745757
HEad  -1.78432 2.19969 2.04001
LeftShoulder1  1.3844 -1.76195 -21.1858
LeftArm  -2.74737 6.1623 -50.0592
LeftForeArm  33.1952 1.58645 -12.475
LeftHand  -0.00299024 5.78932 6.24218
RightShoulder  1.59403 2.26304 22.4016
RightArm  2.80732 9.29089 51.1026
RightForeArm  71.6126 10.8649 10.7998
RightHand  0.0395484 -6.85693 -5.57073
LeftUpLeg  -4.55958 7.72264 23.544
LeftLeg  37.6423 14.4937 12.0501
LeftFoot  2.32249 0.507572 -4.35383
LeftToes  5.08156e-010 -6.90346e-011 -6.33378e-011
2000
root  56.0295 38.6401 8.21772 161.026 -75.8838 -156.152
RightUpLeg  -17.8162 -2.81304 0.617125
RightLeg  22.5821 -3.49663 -1.82056
RightFoot  -8.65964 -0.261859 8.65165
RightToes  1.218e-010 1.26228e-014 -6.01869e-014
Spine  -3.4789 1.29184 6.77505
Spine1  7.42795 1.93098 -1.3984
HEad  -1.49807 2.09327 1.95621
LeftShoulder1  1.29722 -1.42411 -21.2993
LeftArm  -2.57316 5.48654 -50.4514
LeftForeArm  33.6349 1.56843 -12.5324
LeftHand  -0.0124262 5.72478 5.8896
RightShoulder  1.70117 3.03856 20.487
RightArm  7.49677 14.6181 50.4737
RightForeArm  68.5074 13.5167 9.68632
RightHand  -0.0263323 -5.44734 -2.36495
LeftUpLeg  -7.89593 9.33721 21.2913
LeftLeg  43.1836 10.1245 10.4042
LeftFoot  -2.56611 0.391519 -4.90101
LeftToes  5.08156e-010 -6.90346e-011 -6.33378e-011
2001
root  55.3582 38.8099 7.58905 165.435 -74.6055 -160.756
RightUpLeg  -16.1357 -3.93964 0.692283
RightLeg  21.715 -1.16902 -0.712167
RightFoot  -9.46118 -0.195944 8.00412
RightToes  1.218e-010 1.26228e-014 -6.01869e-014
Spine  -3.08561 1.99766 7.94855
Spine1  7.04921 2.92676 -2.6092
HEad  -1.13277 2.19849 1.78951
LeftShoulder1  1.19281 -0.995539 -21.6221
LeftArm  -2.35692 5.47793 -50.5972
LeftForeArm  33.7177 1.18056 -12.592
LeftHand  -0.0124356 5.81557 5.89456
RightShoulder  1.69336 3.65091 17.8272
RightArm  9.95073 21.6876 49.38
RightForeArm  66.0437 16.0026 8.0608
RightHand  -0.0310308 -4.56218 -0.970111
LeftUpLeg  -11.5285 10.3034 17.6769
LeftLeg  45.5704 6.13751 7.06948
LeftFoot  -5.41552 0.336057 -5.86286
LeftToes  5.08156e-010 -6.90346e-011 -6.33378e-011
2002
root  54.7031 38.9958 7.02844 168.575 -74.1292 -163.81
RightUpLeg  -14.5882 -4.06364 0.573591
RightLeg  20.6406 -0.644653 -0.39163
RightFoot  -9.78633 -0.162945 7.0928
RightToes  1.218e-010 1.26228e-014 -6.01869e-014
Spine  -2.66622 2.47346 8.85202
Spine1  6.40573 3.5264 -3.55039
HEad  -1.12846 1.93713 1.38055
LeftShoulder1  1.17684 -0.911353 -21.8078
LeftArm  -2.42007 5.84227 -50.8754
LeftForeArm  33.7832 1.09305 -12.5745
LeftHand  -0.00832145 5.70768 5.90457
RightShoulder  1.53786 3.9088 14.5175
RightArm  4.46859 29.8395 47.2018
RightForeArm  66.9323 17.3035 6.56797
RightHand  -0.0347837 -4.91392 -2.46478
LeftUpLeg  -15.5832 10.2554 13.4829
LeftLeg  45.4242 4.74608 5.54708
LeftFoot  -8.00423 0.229691 -6.23541
LeftToes  5.08156e-010 -6.90346e-011 -6.33378e-011
2003
root  54.0588 39.1948 6.49922 171.854 -74.2082 -167.022
RightUpLeg  -13.0111 -4.00924 0.194179
RightLeg  19.5205 -0.875639 -0.430655
RightFoot  -9.88564 -0.144893 6.10937
RightToes  1.218e-010 1.26228e-014 -6.01869e-014
Spine  -2.19299 2.86396 9.43679
Spine1  5.88601 4.03357 -4.63505
HEad  -1.69931 1.22183 0.936074
LeftShoulder1  1.20904 -1.00473 -21.9599
LeftArm  -2.36107 6.02739 -50.9782
LeftForeArm  34.0011 1.26595 -12.6136
LeftHand  -0.00469635 5.78232 5.94134
RightShoulder  1.36317 4.16364 11.122
RightArm  -11.441 38.2749 43.1595
RightForeArm  70.557 16.7456 5.36637
RightHand  -0.000575597 -5.72884 -7.82812
LeftUpLeg  -19.1641 8.75863 8.90633
LeftLeg  42.6539 5.48841 5.78248
LeftFoot  -10.3467 0.108891 -5.40232
LeftToes  5.08156e-010 -6.90346e-011 -6.33378e-011
2004
root  53.4248 39.3348 6.00769 174.599 -74.4529 -169.721
RightUpLeg  -11.6342 -4.00416 -0.106817
RightLeg  18.8917 -1.20041 -0.565259
RightFoot  -10.2697 -0.119168 5.27794
RightToes  1.218e-010 1.26228e-014 -6.01869e-014
Spine  -1.41907 3.43769 10.3836
Spine1  5.33954 4.81832 -6.03866
HEad  -2.36413 -0.168177 0.38417
LeftShoulder1  1.31553 -1.35324 -22.161
LeftArm  -2.30358 5.95219 -50.9088
LeftForeArm  34.6659 1.6639 -12.6624
LeftHand  5.44546e-005 5.90037 5.80463
RightShoulder  1.18056 4.4276 7.78276
RightArm  -32.3147 45.3142 37.1552
RightForeArm  70.8019 17.6127 2.15892
RightHand  0.154152 -6.78205 -14.4569
LeftUpLeg  -21.9028 7.27303 4.78985
LeftLeg  37.4228 6.71765 5.85243
LeftFoot  -9.69371 0.113821 -3.87333
LeftToes  5.08156e-010 -6.90346e-011 -6.33378e-011
2005
root  52.7646 39.4164 5.54013 176.722 -74.7623 -171.794
RightUpLeg  -10.3539 -3.9611 -0.270789
RightLeg  18.6202 -1.67949 -0.774565
RightFoot  -10.9806 -0.0896833 4.80087
RightToes  1.218e-010 1.26228e-014 -6.01869e-014
Spine  -1.08326 3.991 12.1506
Spine1  5.61986 5.82271 -8.25127
HEad  -3.13487 -1.66766 -0.0886475
LeftShoulder1  1.3995 -1.6993 -21.8712
LeftArm  -2.43457 5.97466 -51.0102
LeftForeArm  34.9265 1.59883 -12.6332
LeftHand  0.00364872 6.01528 5.55616
RightShoulder  0.975952 4.5171 4.62973
RightArm  -58.4099 51.936 29.8947
RightForeArm  67.9725 19.9768 -0.552996
RightHand  0.274648 -6.92721 -21.4088
LeftUpLeg  -23.5135 6.76301 1.16694
LeftLeg  30.0683 7.07864 4.753
LeftFoot  -7.59106 0.144559 -3.02388
LeftToes  5.08156e-010 -6.90346e-011 -6.33378e-011
